HIERARCHY
ROOT Hips
{
	OFFSET 52.634899 13.257291 56.360104
	CHANNELS 6 Xposition Yposition Zposition Xrotation Yrotation Zrotation
	JOINT spine
	{
		OFFSET 0.000000 -0.458068 7.965679
		CHANNELS 3 Xrotation Yrotation Zrotation
		JOINT spine1
		{
			OFFSET 0.000000 -0.000002 10.243103
			CHANNELS 3 Xrotation Yrotation Zrotation
			JOINT spine2
			{
				OFFSET 0.000000 -0.000001 9.814751
				CHANNELS 3 Xrotation Yrotation Zrotation
				JOINT Neck
				{
					OFFSET 0.000000 -1.201385 25.198601
					CHANNELS 3 Xrotation Yrotation Zrotation
					JOINT Head
					{
						OFFSET 0.000000 -0.000001 7.613152
						CHANNELS 3 Xrotation Yrotation Zrotation
						End Site
						{
							OFFSET 0.000000 6.077327 18.428101
						}
					}
				}
				JOINT RightShoulder
				{
					OFFSET -4.132702 0.575449 10.599197
					CHANNELS 3 Xrotation Yrotation Zrotation
					JOINT RightArm
					{
						OFFSET 0.000000 -0.000003 13.901802
						CHANNELS 3 Xrotation Yrotation Zrotation
						JOINT RightArmRoll
						{
							OFFSET 0.000000 -0.000001 7.017891
							CHANNELS 3 Xrotation Yrotation Zrotation
							JOINT RightForeArm
							{
								OFFSET 0.000000 -0.000003 20.440598
								CHANNELS 3 Xrotation Yrotation Zrotation
								JOINT RightForeArmRoll
								{
									OFFSET 0.000000 -0.000002 7.875153
									CHANNELS 3 Xrotation Yrotation Zrotation
									JOINT RightHand
									{
										OFFSET 0.000000 -0.000002 15.803696
										CHANNELS 3 Xrotation Yrotation Zrotation
										End Site
										{
											OFFSET 0.000000 0.000000 0.100006
										}
									}
								}
							}
						}
					}
				}
				JOINT LeftShoulder
				{
					OFFSET 4.132702 0.575449 10.599197
					CHANNELS 3 Xrotation Yrotation Zrotation
					JOINT LeftArm
					{
						OFFSET 0.000000 -0.000003 13.901802
						CHANNELS 3 Xrotation Yrotation Zrotation
						JOINT LeftArmRoll
						{
							OFFSET 0.000000 -0.000001 7.017891
							CHANNELS 3 Xrotation Yrotation Zrotation
							JOINT LeftForeArm
							{
								OFFSET 0.000000 -0.000003 20.440598
								CHANNELS 3 Xrotation Yrotation Zrotation
								JOINT LeftForeArmRoll
								{
									OFFSET 0.000000 -0.000002 7.875153
									CHANNELS 3 Xrotation Yrotation Zrotation
									JOINT LeftHand
									{
										OFFSET 0.000000 -0.000002 15.803696
										CHANNELS 3 Xrotation Yrotation Zrotation
										End Site
										{
											OFFSET 0.000000 0.000000 0.100006
										}
									}
								}
							}
						}
					}
				}
			}
		}
	}
	JOINT RightUpLeg
	{
		OFFSET -7.060482 1.086101 -1.294701
		CHANNELS 3 Xrotation Yrotation Zrotation
		JOINT RightUpLegRoll
		{
			OFFSET 0.000000 -0.000004 18.530796
			CHANNELS 3 Xrotation Yrotation Zrotation
			JOINT RightLeg
			{
				OFFSET 0.000000 0.000004 -22.947598
				CHANNELS 3 Xrotation Yrotation Zrotation
				JOINT RightLegRoll
				{
					OFFSET 0.000000 -0.000004 23.022594
					CHANNELS 3 Xrotation Yrotation Zrotation
					JOINT RightFoot
					{
						OFFSET 0.000000 -0.000003 19.162498
						CHANNELS 3 Xrotation Yrotation Zrotation
						JOINT RightToeBase
						{
							OFFSET 0.000000 -0.000003 16.018799
							CHANNELS 3 Xrotation Yrotation Zrotation
							End Site
							{
								OFFSET 0.006790 0.894206 7.757812
							}
						}
					}
				}
			}
		}
	}
	JOINT LeftUpLeg
	{
		OFFSET 7.060482 1.086101 -1.294701
		CHANNELS 3 Xrotation Yrotation Zrotation
		JOINT LeftUpLegRoll
		{
			OFFSET 0.000000 -0.000004 18.530895
			CHANNELS 3 Xrotation Yrotation Zrotation
			JOINT LeftLeg
			{
				OFFSET 0.000000 -0.000003 22.947502
				CHANNELS 3 Xrotation Yrotation Zrotation
				JOINT LeftLegRoll
				{
					OFFSET 0.000000 -0.000004 23.235497
					CHANNELS 3 Xrotation Yrotation Zrotation
					JOINT LeftFoot
					{
						OFFSET 0.000000 -0.000004 18.949600
						CHANNELS 3 Xrotation Yrotation Zrotation
						JOINT LeftToeBase
						{
							OFFSET 0.000000 -0.000002 16.018799
							CHANNELS 3 Xrotation Yrotation Zrotation
							End Site
							{
								OFFSET -0.030430 0.894205 7.757812
							}
						}
					}
				}
			}
		}
	}
}
MOTION
Frames: 12
Frame Time: 0.041667
53.219200 -30.160110 95.761505 0.072517 0.650205 6.215497 -1.768032 -0.281981 0.000202 0.466735 -0.564091 -0.005795 2.111852 -0.564122 0.000960 22.190555 -0.956874 -1.624225 -6.721310 0.081491 -1.658956 5.637195 -70.866443 4.767116 -52.855723 -114.681649 -32.404887 -0.000002 0.000000 -0.000000 0.046173 -4.967549 -0.287139 0.000000 0.000004 -3.024180 -5.000201 -7.999399 0.000064 5.620464 69.980650 -4.875194 -46.674716 116.738848 30.476844 -0.000003 -0.000000 0.000000 1.114802 6.461608 -0.174972 0.000001 -0.000007 2.999989 -5.000215 7.999162 -0.000091 -1.939301 -178.111075 -3.900268 -179.999991 0.000005 -1.066995 173.351649 -1.879285 -0.700012 -0.000007 -0.000004 0.113040 69.848889 6.918468 1.997072 25.456952 -7.355623 0.000005 -4.120401 175.610324 2.360415 -0.000005 -0.000005 -1.034740 -7.857802 1.219653 0.362674 -0.000008 -0.000005 -0.108747 69.713664 -6.780790 -2.395588 25.456953 7.355613 0.000001 
53.219398 -30.133110 95.760208 0.117149 0.646851 6.229616 -1.765973 -0.279272 -0.002130 0.470842 -0.558798 -0.010716 2.115960 -0.558885 -0.004027 22.164307 -0.979493 -1.624644 -6.720498 0.091376 -1.660503 5.650367 -70.886620 4.778680 -52.939065 -114.704325 -32.505137 -0.000002 0.000000 -0.000000 0.046172 -4.974499 -0.287231 0.000001 0.000003 -3.024181 -5.000198 -7.999401 0.000065 5.607451 69.955870 -4.864383 -46.695975 116.792164 30.507484 0.000001 0.000000 0.000001 1.125256 6.441689 -0.175842 -0.000002 -0.000007 2.999991 -5.000216 7.999162 -0.000093 -2.021071 -178.098193 -3.900022 -179.999991 0.000005 -1.066995 173.324861 -1.882167 -0.700230 -0.000006 -0.000004 0.112995 69.847283 6.918452 1.997368 25.456953 -7.355622 0.000004 -4.191637 175.630678 2.387319 -0.000005 -0.000005 -1.033651 -7.855899 1.209098 0.362550 -0.000008 -0.000005 -0.108061 69.697395 -6.780483 -2.396827 25.456955 7.355612 0.000001 
53.221802 -30.090912 95.769608 0.161599 0.643551 6.243934 -1.764053 -0.276521 -0.004523 0.474666 -0.553421 -0.015805 2.119779 -0.553568 -0.009184 22.138766 -1.003023 -1.624871 -6.720027 0.102136 -1.661916 5.664878 -70.908162 4.791518 -53.023858 -114.726346 -32.606032 -0.000001 0.000000 -0.000000 0.046171 -4.981169 -0.287365 0.000000 0.000004 -3.024190 -5.000201 -7.999400 0.000065 5.594286 69.930195 -4.853521 -46.714293 116.845521 30.535235 0.000001 -0.000000 0.000001 1.135528 6.422000 -0.176687 -0.000001 -0.000008 2.999990 -5.000218 7.999162 -0.000093 -2.102132 -178.086282 -3.899841 -179.999991 0.000005 -1.065997 173.298510 -1.885036 -0.701443 -0.000007 -0.000004 0.112926 69.845603 6.918504 1.997482 25.456953 -7.355623 0.000004 -4.262096 175.650021 2.414459 -0.000004 -0.000004 -1.032580 -7.853317 1.198250 0.362417 -0.000008 -0.000005 -0.107362 69.680839 -6.780260 -2.397899 25.456952 7.355613 0.000001 
53.219700 -30.061115 95.763809 0.205921 0.640298 6.258410 -1.762233 -0.273740 -0.006959 0.478294 -0.547987 -0.021014 2.123407 -0.548193 -0.014458 22.113538 -1.027208 -1.624991 -6.719804 0.113507 -1.663236 5.680320 -70.930579 4.805240 -53.111790 -114.747178 -32.709749 0.000001 0.000000 0.000000 0.046173 -4.987619 -0.287532 0.000001 0.000004 -3.024201 -5.000197 -7.999399 0.000064 5.581135 69.904104 -4.842743 -46.731782 116.898537 30.562221 0.000002 -0.000000 -0.000001 1.145647 6.402472 -0.177514 0.000002 -0.000007 2.999990 -5.000216 7.999160 -0.000092 -2.182684 -178.074397 -3.899737 -179.999991 0.000005 -1.065996 173.272501 -1.887920 -0.701655 -0.000006 -0.000004 0.112841 69.843916 6.918520 1.997691 25.456950 -7.355621 0.000004 -4.332022 175.670348 2.441637 -0.000005 -0.000004 -1.031530 -7.850255 1.187172 0.362275 -0.000007 -0.000005 -0.106656 69.664070 -6.780055 -2.398887 25.456957 7.355613 0.000001 
53.218601 -30.017811 95.763306 0.250170 0.637079 6.272958 -1.760470 -0.270941 -0.009420 0.481809 -0.542520 -0.026291 2.126925 -0.542787 -0.019803 22.088518 -1.051761 -1.625042 -6.719718 0.125228 -1.664515 5.696329 -70.953576 4.819512 -53.197710 -114.768570 -32.810808 -0.000000 -0.000000 0.000001 0.046171 -4.993959 -0.287715 0.000002 0.000005 -3.024211 -5.000200 -7.999400 0.000064 5.567913 69.877630 -4.831942 -46.748615 116.951266 30.588586 -0.000000 -0.000000 0.000002 1.155697 6.383033 -0.178322 0.000003 -0.000007 2.999992 -5.000216 7.999162 -0.000093 -2.262951 -178.061515 -3.899727 -179.999991 0.000005 -1.064999 173.246655 -1.889801 -0.701743 -0.000007 -0.000004 0.112749 69.842113 6.918533 1.998006 25.456955 -7.355622 0.000004 -4.401628 175.690702 2.468851 -0.000005 -0.000005 -1.030490 -7.846912 1.175978 0.362130 -0.000008 -0.000006 -0.105942 69.647200 -6.779840 -2.399981 25.456953 7.355612 0.000002 
53.220200 -29.985508 95.762802 0.294390 0.633885 6.287532 -1.758721 -0.268139 -0.011888 0.485296 -0.537045 -0.031585 2.130413 -0.537373 -0.025165 22.063599 -1.076405 -1.625088 -6.719664 0.137036 -1.665775 5.712502 -70.976669 4.833939 -53.287087 -114.788897 -32.915655 -0.000001 0.000000 0.000001 0.046173 -5.000279 -0.287905 0.000001 0.000004 -3.024210 -5.000199 -7.999401 0.000064 5.554727 69.851040 -4.821180 -46.763822 117.004610 30.613147 -0.000001 0.000000 0.000001 1.165712 6.363625 -0.179124 0.000002 -0.000007 2.999989 -5.000217 7.999162 -0.000093 -2.343146 -178.049631 -3.899731 -179.999991 0.000005 -1.064999 173.220837 -1.892684 -0.702950 -0.000007 -0.000004 0.112653 69.840433 6.918548 1.998115 25.456953 -7.355621 0.000005 -4.471161 175.711042 2.496050 -0.000005 -0.000005 -1.029460 -7.843501 1.164754 0.361986 -0.000008 -0.000005 -0.105227 69.630336 -6.779647 -2.400977 25.456952 7.355613 0.000001 
53.225101 -29.949112 95.764206 0.338653 0.630710 6.302082 -1.756948 -0.265345 -0.014341 0.488839 -0.531588 -0.036846 2.133952 -0.531977 -0.030494 22.038580 -1.100873 -1.625203 -6.719544 0.148670 -1.667054 5.728412 -70.999468 4.848114 -53.372696 -114.810412 -33.016516 -0.000002 -0.000000 -0.000000 0.046172 -5.006649 -0.288086 0.000003 0.000004 -3.024220 -5.000200 -7.999400 0.000064 5.541604 69.824662 -4.810463 -46.780755 117.057408 30.639535 0.000001 -0.000000 0.000001 1.175781 6.344156 -0.179925 0.000003 -0.000007 2.999989 -5.000217 7.999162 -0.000092 -2.423489 -178.036749 -3.899805 -179.999991 0.000005 -1.064001 173.194951 -1.895566 -0.703162 -0.000006 -0.000004 0.112564 69.838643 6.918597 1.998333 25.456955 -7.355620 0.000004 -4.540832 175.731383 2.523162 -0.000004 -0.000005 -1.028411 -7.840228 1.153589 0.361844 -0.000008 -0.000006 -0.104515 69.613466 -6.779448 -2.401973 25.456955 7.355613 0.000001 
53.221500 -29.912907 95.762100 0.383001 0.627540 6.316545 -1.755098 -0.262574 -0.016765 0.492523 -0.526173 -0.042024 2.137640 -0.526621 -0.035738 22.013261 -1.124870 -1.625450 -6.719254 0.159867 -1.668406 5.743757 -71.021680 4.861764 -53.458460 -114.832118 -33.118112 0.000001 -0.000000 -0.000001 0.046174 -5.013159 -0.288244 0.000003 0.000004 -3.024231 -5.000199 -7.999400 0.000065 5.528585 69.798680 -4.799807 -46.797031 117.111229 30.664985 0.000001 -0.000000 0.000000 1.185938 6.324587 -0.180725 0.000002 -0.000008 2.999989 -5.000215 7.999162 -0.000092 -2.504195 -178.024892 -3.899854 -179.999991 0.000005 -1.064003 173.168805 -1.898433 -0.703383 -0.000006 -0.000004 0.112484 69.836949 6.918612 1.998542 25.456955 -7.355622 0.000005 -4.610879 175.751737 2.550122 -0.000005 -0.000004 -1.027360 -7.837309 1.142580 0.361710 -0.000008 -0.000005 -0.103811 69.596800 -6.779181 -2.403144 25.456955 7.355613 0.000001 
53.222198 -29.862816 95.768608 0.427490 0.624367 6.330861 -1.753139 -0.259836 -0.019142 0.496433 -0.520825 -0.047067 2.141548 -0.521333 -0.040848 21.987444 -1.148129 -1.625870 -6.718688 0.170363 -1.669860 5.758080 -71.042833 4.874440 -53.542321 -114.854480 -33.218444 -0.000002 -0.000000 -0.000000 0.046173 -5.019910 -0.288366 0.000003 0.000005 -3.024241 -5.000198 -7.999401 0.000065 5.515700 69.773292 -4.789197 -46.815677 117.164764 30.692831 -0.000001 0.000001 -0.000000 1.196253 6.304828 -0.181532 0.000000 -0.000007 2.999992 -5.000214 7.999162 -0.000092 -2.585482 -178.013021 -3.899906 -179.999991 0.000005 -1.063006 173.142345 -1.901312 -0.703610 -0.000007 -0.000004 0.112421 69.835351 6.918598 1.998838 25.456955 -7.355624 0.000004 -4.681531 175.772118 2.576867 -0.000005 -0.000005 -1.026281 -7.834939 1.131817 0.361587 -0.000008 -0.000005 -0.103116 69.580346 -6.778953 -2.404207 25.456955 7.355611 0.000001 
53.226002 -29.831715 95.767807 0.472175 0.621182 6.344981 -1.751021 -0.257146 -0.021450 0.500653 -0.515571 -0.051927 2.145767 -0.516134 -0.045773 21.961117 -1.170369 -1.626537 -6.717746 0.179900 -1.671461 5.770981 -71.062401 4.885767 -53.623019 -114.878318 -33.316321 -0.000002 0.000000 -0.000000 0.046172 -5.026980 -0.288437 -0.000001 0.000005 -3.024241 -5.000199 -7.999400 0.000064 5.502997 69.748799 -4.778663 -46.837124 117.218231 30.723485 -0.000002 0.000000 0.000000 1.206782 6.284808 -0.182353 0.000000 -0.000008 2.999991 -5.000216 7.999161 -0.000092 -2.667555 -178.000153 -3.899986 -179.999991 0.000005 -1.063006 173.115366 -1.904174 -0.704864 -0.000007 -0.000004 0.112384 69.833767 6.918618 1.999042 25.456953 -7.355624 0.000005 -4.753019 175.791461 2.603428 -0.000004 -0.000004 -1.025180 -7.833321 1.121391 0.361475 -0.000008 -0.000005 -0.102435 69.564186 -6.778620 -2.405436 25.456952 7.355613 0.000001 
53.226398 -29.776814 95.763702 0.517106 0.617973 6.358843 -1.748707 -0.254516 -0.023675 0.505268 -0.510435 -0.056551 2.150375 -0.511052 -0.050462 21.933986 -1.191317 -1.627508 -6.716326 0.188213 -1.673236 5.782037 -71.080139 4.895334 -53.701833 -114.902783 -33.413644 -0.000001 0.000000 -0.000000 0.046169 -5.034448 -0.288447 0.000004 0.000004 -3.024240 -5.000200 -7.999401 0.000064 5.490518 69.725508 -4.768211 -46.862000 117.271903 30.757373 -0.000001 -0.000000 0.000000 1.217590 6.264477 -0.183191 -0.000001 -0.000008 2.999991 -5.000213 7.999162 -0.000093 -2.750644 -177.987312 -3.900049 -179.999991 0.000005 -1.061994 173.087772 -1.907047 -0.705143 -0.000007 -0.000004 0.112381 69.832291 6.918639 1.999236 25.456948 -7.355623 0.000005 -4.825557 175.811842 2.629563 -0.000005 -0.000004 -1.024040 -7.832672 1.111406 0.361380 -0.000008 -0.000005 -0.101773 69.548442 -6.778268 -2.406736 25.456950 7.355612 0.000001 
53.226501 -29.740910 95.764801 0.562344 0.614730 6.372387 -1.746157 -0.251959 -0.025794 0.510362 -0.505442 -0.060891 2.155474 -0.506110 -0.054862 21.905942 -1.210684 -1.628841 -6.714329 0.195039 -1.675239 5.790953 -71.095726 4.902873 -53.774137 -114.929981 -33.505500 -0.000000 0.000000 -0.000001 0.046173 -5.042419 -0.288382 0.000002 0.000004 -3.024241 -5.000200 -7.999401 0.000064 5.478286 69.703508 -4.757840 -46.889051 117.326531 30.793167 0.000001 -0.000000 -0.000001 1.228719 6.243746 -0.184050 0.000001 -0.000007 2.999988 -5.000217 7.999162 -0.000091 -2.834959 -177.974485 -3.900073 -179.999991 0.000005 -1.061994 173.059426 -1.909916 -0.706450 -0.000007 -0.000004 0.112413 69.831014 6.918600 1.999510 25.456952 -7.355622 0.000004 -4.899396 175.831226 2.655376 -0.000005 -0.000004 -1.022850 -7.833197 1.101933 0.361301 -0.000007 -0.000005 -0.101134 69.533197 -6.777864 -2.408193 25.456953 7.355612 0.000001 
